<svg width="18" height="15" viewBox="0 0 18 15" fill="none" xmlns="http://www.w3.org/2000/svg">
<path d="M9.5625 2.14286C8.16 2.16429 6.93 2.55357 5.8725 3.31071C4.815 4.04643 4.07625 5.02857 3.65625 6.25714C4.84875 5.67857 6.16125 5.37857 7.59375 5.35714H10.6875C11.04 5.37857 11.2275 5.55714 11.25 5.89286C11.2275 6.22857 11.04 6.40714 10.6875 6.42857H10.125H7.59375C7.00875 6.42857 6.44625 6.48571 5.90625 6.6C4.99125 6.8 4.1475 7.14286 3.375 7.62857C2.3475 8.3 1.52625 9.15 0.91125 10.1786C0.32625 11.2286 0.0225 12.3893 0 13.6607V14.1964C0.045 14.6893 0.32625 14.9571 0.84375 15C1.36125 14.9571 1.6425 14.6893 1.6875 14.1964V13.6607C1.7325 11.9893 2.36625 10.6179 3.58875 9.54643C3.96375 10.8393 4.69125 11.8857 5.77125 12.6857C6.84375 13.4929 8.1075 13.9071 9.5625 13.9286H9.59625C11.1712 13.9071 12.5888 13.4607 13.8488 12.5893C15.1163 11.7179 16.1138 10.5464 16.8412 9.075C17.5912 7.625 17.9775 5.99643 18 4.18929C18 2.73214 17.7525 1.39286 17.2575 0.171428C17.2125 0.0571427 17.1187 0 16.9762 0C16.8638 0 16.77 0.0571427 16.695 0.171428C16.35 0.771428 15.87 1.25 15.255 1.60714C14.6475 1.96429 13.9688 2.14286 13.2188 2.14286H9.5625Z" fill="url(#paint0_linear_1_7288)"/>
<defs>
<linearGradient id="paint0_linear_1_7288" x1="1.17351" y1="-1.63781e-07" x2="17.7319" y2="1.07675" gradientUnits="userSpaceOnUse">
<stop stop-color="#BC5EFF"/>
<stop offset="1" stop-color="#612AE1"/>
</linearGradient>
</defs>
</svg>
